#!OML:ASF F:\VICON\USERDATA\INSTALL\rory3\rory3.ASF
:FULLY-SPECIFIED
:DEGREES
77
root 0.9786208009339081 17.761729868554397 37.17035915857444 -3.8744371826697126 -1.9226117765254995 -1.2955770859738653
lfemur 5.084609974403119 -1.6356550475117975 -20.12497903382601
ltibia 43.74338392467813
lfoot -2.3177886124640725 -4.676805184543107
ltoes -2.600811633074785
rfemur -21.4310323245695 2.452698808158888 24.871837538413033
rtibia 26.65607509000998
rfoot -3.23388369164957 -8.006899346168808
rtoes 8.075161106511192
lowerback 11.005598482574856 -1.0073911648679696 -1.7075443686608351
upperback 0.015858905681604335 -1.6255367279775046 2.012909614704667
thorax -6.112300784184626 -0.7495572429317996 3.8162845379551515
lowerneck -16.891276978244967 -3.1911218428930015 -1.6014016428327333
upperneck 21.449247451171914 -4.255848645872703 0.9963482196203832
head 9.613127298547354 -2.0338426839823778 0.058838694581063694
lclavicle -2.700307951831831e-15 -2.1517147062579e-15
lhumerus -32.11688381308978 4.2987201822312 83.45739631531143
lradius 21.890337185993054
lwrist 10.480493638912169
lhand -30.138759360791276 20.62625648145433
lfingers 7.125020000000001
lthumb -3.577399210540375 50.83984001252181
rclavicle -2.700307951750138e-15 -2.151714706201701e-15
rhumerus -31.678831216098466 -22.587927250377035 -75.67489934548968
rradius 25.598014763111234
rwrist 6.779820785778009
rhand -18.050821943284717 21.506057290026526
rfingers 7.125020000000001
rthumb 8.209109080248139 -8.1370956278737
78
root 0.9632423985321701 17.759693637903077 36.19403733359157 -3.7168084326257427 -2.3177076264452 -1.9456397347243837
lfemur 4.66663813559572 -1.2029424734165644 -18.730012910978402
ltibia 45.62720228608285
lfoot -2.49365776957774 -4.602677159235184
ltoes -3.7793410407496655
rfemur -20.83771381104799 2.960079083429603 25.79114047293073
rtibia 25.53869824068594
rfoot -3.285549121037647 -7.842087720363401
rtoes 8.37464748246743
lowerback 10.99626493122787 -0.9638165334829158 -1.2251797000069948
upperback 0.0003115367323921203 -1.5010335093657274 2.188597670330771
thorax -6.135333318064424 -0.7040565759214499 3.7742461784785033
lowerneck -16.923222303711892 -3.192935899937972 -1.5698769393341072
upperneck 21.46145764055117 -4.252824046882129 0.9805666070776794
head 9.621499591831693 -2.032907419525842 0.045478823129736196
lclavicle -2.700307951838209e-15 -2.1517147062622622e-15
lhumerus -32.305580624268686 4.694981355636673 83.52917759853814
lradius 22.086931118125122
lwrist 10.192902261728618
lhand -30.198610912704435 20.883214582473368
lfingers 7.125020000000001
lthumb -3.6184677063811397 51.07384493255688
rclavicle -2.7003079517491656e-15 -2.15171470620105e-15
rhumerus -31.17020984799721 -22.110445832143856 -75.84844179527721
rradius 25.727847104225507
rwrist 6.513425801936011
rhand -18.03120798238889 21.51275550984432
rfingers 7.125020000000001
rthumb 8.284969975113372 -8.14888214800629
79
root 0.9507386292087256 17.764269029133377 35.82455161890144 -3.5580860797863174 -2.665777543142534 -2.4522352072904443
lfemur 3.8165697214358065 -0.7980795642506804 -17.49010690495433
ltibia 47.5822756234742
lfoot -2.8652528344187997 -4.559245242111109
ltoes -3.816017406021535
rfemur -20.244066348176492 3.3527859574131833 26.506045831990015
rtibia 24.254122087378292
rfoot -3.2081362768850132 -7.707024085448451
rtoes 8.027288707016398
lowerback 10.975862052942185 -0.916013731857233 -0.828638683075848
upperback -0.009273663504006907 -1.3352544007187772 2.317449788863173
thorax -6.153969410469395 -0.626921320331786 3.687499892057188
lowerneck -16.95998522151408 -3.1970195401315253 -1.5435261681275567
upperneck 21.462607186312347 -4.247669222948509 0.9666339324957903
head 9.631396585978603 -2.0278847386571206 0.03930503310313685
lclavicle -2.700307951838376e-15 -2.15171470626254e-15
lhumerus -32.56638570413747 4.817585219711429 83.51196689772725
lradius 22.35911582187639
lwrist 9.989378470955927
lhand -30.204709544567343 20.928231846777305
lfingers 7.125020000000001
lthumb -3.534605761630606 51.3485132157562
rclavicle -2.7003079517541808e-15 -2.1517147062046426e-15
rhumerus -30.959653397314266 -21.74876177150306 -75.94070060714792
rradius 25.899279353854833
rwrist 6.000265677547604
rhand -17.99478813184411 21.573366743360552
rfingers 7.125020000000001
rthumb 8.297983733163512 -8.144143793662938
80
root 0.9545001582527721 17.778315773825526 35.799469533301625 -3.3901941356033527 -2.825761027684937 -2.7506052810964423
lfemur 3.399041124044629 -0.5757053011639204 -16.654028860108273
ltibia 49.22742105298173
lfoot -3.4571710873019237 -4.563450386331531
ltoes -3.5042182966391193
rfemur -19.636377085579444 3.5500695991309117 26.971397381238862
rtibia 23.11336606923421
rfoot -2.9522428732557247 -7.579178289295187
rtoes 8.151363285054096
lowerback 10.908455638661444 -0.8566061998158838 -0.43695805821302247
upperback -0.04061855705302256 -1.1570708373840954 2.4345029407954524
thorax -6.175003367908257 -0.5491049475459345 3.5890582512549805
lowerneck -16.952205420151817 -3.19721452605342 -1.5091755024730058
upperneck 21.49296326614788 -4.258262008688519 0.9343328713401461
head 9.652467024659304 -2.031659592565505 0.022734657136964848
lclavicle -2.700307951837316e-15 -2.1517147062619893e-15
lhumerus -32.67893302226936 5.062862512663833 83.46292272386053
lradius 22.63875116745918
lwrist 9.655144409561938
lhand -30.106834431907266 20.7393480568292
lfingers 7.125020000000001
lthumb -3.401279009422698 51.16128805017653
rclavicle -2.7003079517545133e-15 -2.1517147062050185e-15
rhumerus -30.863849034069876 -21.375253972920618 -75.98259928762985
rradius 26.140195126533865
rwrist 5.46626100295862
rhand -17.984472823841518 21.564779158673353
rfingers 7.125020000000001
rthumb 8.410043160391552 -7.985647248715583
81
root 0.9712929642264658 17.80643748241166 35.900341415706734 -3.129221219768445 -2.7738259263589686 -3.1204405975030443
lfemur 2.433712545490149 -0.42855182379274726 -15.93788423058676
ltibia 51.014752166289085
lfoot -4.25382984034705 -4.669455028481877
ltoes -7.114538907923727
rfemur -18.98833629475464 3.599631206103372 27.35608604372386
rtibia 21.614686837755738
rfoot -2.553760645605334 -7.483597776009727
rtoes 7.695818262489993
lowerback 10.829772238538263 -0.8356575535399637 0.03716448254473359
upperback -0.10444274165421845 -1.002835382690475 2.5514678364487944
thorax -6.21272428661069 -0.49993016471501694 3.4091109349761317
lowerneck -16.9385577025154 -3.2053275922840165 -1.4788782341745859
upperneck 21.524345951857917 -4.2624726839757425 0.8841521947121783
head 9.673001575175766 -2.033684694486237 -0.0020372210388192313
lclavicle -2.7003079518457565e-15 -2.151714706268011e-15
lhumerus -32.83106329673001 5.121298859366381 83.27712637736943
lradius 22.951428357665698
lwrist 9.704960102204216
lhand -29.977834598441905 20.65123910732524
lfingers 7.125020000000001
lthumb -3.16416731014928 51.21054157218595
rclavicle -2.7003079517529174e-15 -2.151714706204244e-15
rhumerus -30.63074127261439 -20.887197814028895 -75.9365529969564
rradius 26.356977283460267
rwrist 4.964786423614243
rhand -17.969819295479883 21.60751538753958
rfingers 7.125020000000001
rthumb 8.464671558933878 -7.787249581260804
82
root 0.9857825900197503 17.81806768559675 35.88577740433841 -3.2134241607856566 -2.8836229213105957 -2.931948747912907
lfemur 1.7589345832558525 -0.3369230822164031 -15.862091233033082
ltibia 52.52559555055605
lfoot -5.086984687083982 -4.7098445466148045
ltoes -6.647678375217224
rfemur -18.439986986225307 3.560037017096154 27.29977545493981
rtibia 20.871473512202638
rfoot -2.184952983248376 -7.456105844158557
rtoes 8.683282501848753
lowerback 10.79085240020595 -0.779186626128606 0.00489448212331145
upperback -0.11076812606158963 -0.9227570626823491 2.5356721931758948
thorax -6.180347757174793 -0.4435136920633235 3.3596157334289707
lowerneck -16.87036240844634 -3.2118644492490036 -1.4702954296399033
upperneck 21.593422107841054 -4.271909091989121 0.8540323279867389
head 9.675435963291 -2.038229064909252 -0.0031400819308097516
lclavicle -2.7003079518379484e-15 -2.1517147062629682e-15
lhumerus -32.81373779558397 5.258420940929855 83.08935424899315
lradius 23.217771993977518
lwrist 10.180697109321912
lhand -29.988768480297438 20.28493800384361
lfingers 7.125020000000001
lthumb -3.2002815699972587 50.76645343659575
rclavicle -2.700307951757325e-15 -2.1517147062075105e-15
rhumerus -30.47833982938086 -20.467846960046206 -75.93641222889173
rradius 26.502142482769887
rwrist 4.712332651395753
rhand -17.973755709798844 21.669088565587618
rfingers 7.125020000000001
rthumb 8.485265252394054 -7.64210169824164
83
root 1.0065032831952396 17.827314496645457 35.94256946607665 -3.3180723894143997 -2.8794705982113857 -2.757723196400427
lfemur 1.1046346173202934 -0.3263384669153262 -15.961093028982472
ltibia 53.82753962099512
lfoot -5.948451777723388 -4.715730426075124
ltoes -8.268052445801507
rfemur -17.972142111676177 3.4687407275228477 27.18690730116853
rtibia 20.544220894571176
rfoot -1.720625735022682 -7.382167926692953
rtoes 8.91423151435542
lowerback 10.721955313676416 -0.6983704414514353 0.11658706278062791
upperback -0.10769018397920482 -0.8092386054868306 2.489939072281368
thorax -6.178801087050227 -0.39991233566084383 3.2017402915630906
lowerneck -16.813551091279255 -3.2214723929580424 -1.4662509815409475
upperneck 21.625490744309175 -4.2916645823141115 0.8599206953185075
head 9.685431182711241 -2.046462920643194 0.0005240753826006861
lclavicle -2.7003079518325537e-15 -2.1517147062595458e-15
lhumerus -32.78869239031882 5.1624517728332835 82.8303967696473
lradius 23.506636700440406
lwrist 10.521733650348377
lhand -30.016654773339365 19.718623616449808
lfingers 7.125020000000001
lthumb -3.2115545819393003 50.29012837365346
rclavicle -2.7003079517556595e-15 -2.1517147062065812e-15
rhumerus -30.36601849649756 -20.013272313147404 -75.85719302874108
rradius 26.63125553926057
rwrist 4.474937319696463
rhand -17.983034179078146 21.710596222309878
rfingers 7.125020000000001
rthumb 8.493105944851644 -7.541435429873917
